<svg width="352" height="301" viewBox="0 0 352 301" fill="none" xmlns="http://www.w3.org/2000/svg">
<path opacity="0.15" d="M276.81 289.222H168.996C168.385 289.223 167.779 289.103 167.214 288.87C166.649 288.637 166.135 288.294 165.702 287.862C165.269 287.43 164.926 286.917 164.692 286.352C164.458 285.787 164.337 285.182 164.337 284.57C164.339 283.336 164.831 282.153 165.705 281.281C166.578 280.408 167.762 279.919 168.996 279.919H276.81C278.044 279.919 279.227 280.409 280.099 281.281C280.972 282.153 281.462 283.336 281.462 284.57C281.462 285.804 280.972 286.987 280.099 287.859C279.227 288.732 278.044 289.222 276.81 289.222Z" fill="#292929"/>
<path opacity="0.15" d="M150.375 290.003H126.335C124.621 290.003 123.232 291.393 123.232 293.107C123.232 294.821 124.621 296.211 126.335 296.211H150.375C152.089 296.211 153.478 294.821 153.478 293.107C153.478 291.393 152.089 290.003 150.375 290.003Z" fill="#292929"/>
<path d="M296.277 241.791C292.581 234.259 290.773 225.94 291.009 217.554C291.128 213.479 291.728 209.388 291.215 205.337C290.133 196.768 283.925 189.337 276.162 185.546C268.399 181.755 259.317 181.29 250.836 182.94C237.094 185.609 226.07 194.202 224.775 208.717C224.032 217.04 225.636 225.435 224.901 233.759C224.722 235.802 224.354 237.825 223.803 239.8L219.649 240.101L188.139 242.367C181.213 242.872 174.224 243.038 169.32 248.329C164.093 253.986 160.722 261.107 159.662 268.736C158.872 274.47 159.749 280.969 164.092 284.783C164.447 285.093 164.819 285.383 165.206 285.652H270.642C277.917 285.717 284.983 283.218 290.599 278.592C290.938 278.308 291.27 278.023 291.594 277.723C302.073 268.183 302.144 253.708 296.277 241.791Z" fill="white" stroke="#18216D" stroke-miterlimit="10"/>
<path d="M237.592 233.08C235.002 230.592 232.222 228.27 229.782 225.633C226.702 222.3 224.957 218.32 223.085 214.229C221.087 209.854 219.492 205.163 219.618 200.29C219.913 194.11 222.624 188.293 227.168 184.093C229.727 181.661 233.652 179.592 234.212 175.919C234.757 172.373 233.904 168.354 236.036 165.203C239.053 160.725 247.44 164.887 250.023 167.904C253.41 171.852 253.039 178.423 257.699 181.392C259.46 182.514 261.647 182.774 263.566 183.517C265.398 184.231 267.034 185.369 268.341 186.838C269.648 188.307 270.588 190.064 271.085 191.967C271.985 195.528 271.953 199.335 274.686 202.099C277.56 205.005 280.214 207.493 281.754 211.457C282.825 214.533 283.475 217.739 283.689 220.989C284.376 228.768 278.769 235.567 272.151 239.248C267.064 242.03 261.26 243.226 255.487 242.683C250.686 242.249 244.431 240.922 241.351 237.1C240.185 235.681 238.93 234.338 237.592 233.08Z" fill="#18216D"/>
<path d="M228.984 207.437C227.32 212.152 224.429 216.337 220.609 219.562C216.789 222.787 212.178 224.934 207.251 225.783C208.321 227.773 209.118 229.898 209.62 232.101C216.38 232.187 223.448 230.3 228.257 225.554C233.067 220.807 234.978 212.839 231.551 207.011C231.132 206.277 229.253 206.656 228.984 207.437Z" fill="white" stroke="#18216D" stroke-miterlimit="10"/>
<path d="M225.343 203.512C226.481 200.432 228.502 197.432 229.971 194.62L232.498 189.732C233.059 188.65 233.73 186.32 234.986 185.846C236.005 185.467 237.213 186.344 238.145 186.683C239.503 187.173 240.909 187.544 242.275 188.026C244.984 188.997 247.685 190.253 249.667 192.401C250.743 193.495 251.584 194.798 252.139 196.23C252.693 197.661 252.948 199.191 252.889 200.725C252.755 202.494 251.989 204.152 251.578 205.882C251.17 207.918 251.029 210 251.16 212.073C251.316 218.462 251.809 224.839 252.636 231.177C252.879 232.276 252.83 233.419 252.494 234.493C251.404 237.084 244.534 236.42 242.086 236.642C238.177 236.989 233.675 237.921 229.987 236.144C229.496 232.106 229.261 228.042 229.284 223.974C229.284 220.586 230.24 217.167 228.1 214.253C226.228 211.718 224.048 209.459 224.633 206.071C224.79 205.198 225.028 204.342 225.343 203.512Z" fill="#005FEC"/>
<path d="M233.888 184.559C233.979 183.508 233.979 182.451 233.888 181.4C233.793 180.539 233.17 180.184 232.522 179.647C229.75 177.372 229.197 173.787 230.074 170.47C230.184 170.118 230.256 169.756 230.287 169.388C230.291 169.045 230.268 168.701 230.216 168.362C230.079 167.057 230.418 165.747 231.172 164.674C232.862 162.391 236.905 162.249 239.156 163.718C242.22 165.7 242.638 169.933 242.749 173.582C242.836 176.425 242.915 179.26 243.002 182.103C243.089 185.151 243.333 188.989 240.151 190.6C239.036 191.153 237.759 191.279 236.558 190.956C235.841 190.781 235.191 190.402 234.686 189.866C233.485 188.484 233.801 186.249 233.888 184.559Z" fill="white" stroke="#18216D" stroke-miterlimit="10"/>
<path d="M241.47 178.107C239.786 179.722 237.596 180.707 235.27 180.895C237.361 181.498 239.565 181.59 241.699 181.163C241.551 180.151 241.475 179.13 241.47 178.107Z" fill="#18216D"/>
<path d="M157.711 280.748L162.189 276.136C163.857 274.521 165.374 272.758 166.722 270.868C167.82 269.216 168.656 267.405 169.202 265.498C169.684 263.808 169.905 261.905 169.06 260.373C168.529 259.537 167.771 258.869 166.874 258.45C165.978 258.03 164.979 257.875 163.998 258.004C162.036 258.302 160.209 259.182 158.754 260.531C155.421 263.342 153.352 266.928 151.394 270.734C149.167 275.062 146.853 279.345 144.452 283.583C143.986 284.373 142.872 285.952 143.03 286.916C143.188 287.879 144.61 288.234 145.684 288.329C148.156 288.558 150.525 288.132 152.294 286.315C154.063 284.499 155.903 282.643 157.711 280.748Z" fill="#005FEC"/>
<path d="M145.147 281.956C144.946 281.825 144.721 281.736 144.485 281.694C144.248 281.652 144.006 281.658 143.773 281.711C143.336 281.839 142.928 282.051 142.572 282.335C139.137 284.703 135.316 286.454 131.279 287.508C129.273 288.029 127.07 288.471 125.751 290.051C124.709 291.283 125.68 292.42 126.896 292.981C128.805 293.704 130.877 293.884 132.882 293.502C137.707 292.752 142.533 294.039 147.366 293.502C150.999 293.099 152.017 290.406 152.997 287.247C153.147 286.766 153.328 286.284 153.463 285.802C152.302 285.344 150.777 285.534 149.514 285.068C148.421 284.694 147.424 284.084 146.592 283.283C146.16 282.789 145.675 282.344 145.147 281.956Z" fill="#18216D"/>
<path d="M253.363 235.386C252.905 233.491 252.226 231.54 250.812 230.316C249.399 229.092 247.077 228.902 245.908 230.395C245.505 230.9 245.276 231.54 244.874 232.045C243.665 233.546 240.633 232.535 239.061 232.495C236.613 232.432 234.165 232.574 231.725 232.74C225.77 233.135 219.823 233.656 213.877 234.178L197.221 235.639C194.394 235.883 191.559 236.247 188.724 236.428C186.276 236.563 184.262 235.994 181.853 237.123C179.878 238.172 178.053 239.481 176.428 241.017C173.893 243.188 171.326 245.321 168.815 247.524C167.378 248.78 165.964 250.059 164.582 251.378C160.72 255.074 157.166 259.078 153.613 263.066C150.627 266.435 147.637 269.802 144.641 273.166C150.268 277.661 155.592 282.524 160.578 287.721C161.486 286.931 162.363 285.921 162.947 285.352C164.274 284.167 165.553 282.943 166.801 281.688C167.476 281.09 167.998 280.34 168.325 279.5C168.523 278.821 168.459 278.086 168.617 277.391C169.107 275.125 171.547 273.988 173.308 272.487C175.843 270.323 176.23 267.291 177.857 264.59C179.302 262.173 182.248 261.115 184.23 259.117C186.078 257.246 186.994 254.647 188.574 252.539C189.861 250.817 193.028 248.424 195.2 250.02C196.929 251.283 196.676 254.173 198.761 255.216C200.191 255.927 201.92 255.887 203.444 256.156C208.688 257.088 213.995 257.609 219.286 258.13L228.329 259.014C233.351 259.504 238.508 259.986 243.373 258.541C245.394 257.978 247.281 257.013 248.921 255.704C250.56 254.394 251.918 252.767 252.913 250.92C253.376 249.987 253.72 249 253.94 247.982C254.895 243.946 254.263 239.161 253.363 235.386Z" fill="white" stroke="#18216D" stroke-miterlimit="10"/>
<path d="M258.054 199.722C263.953 203.007 264.877 210.249 265.067 216.677C265.161 219.986 264.972 223.374 263.732 226.438C260.399 234.651 250.307 236.705 242.409 236.444C232.237 236.094 222.198 234.013 212.724 230.292C212.666 228.564 212.862 226.837 213.308 225.167C219.322 226.753 225.512 227.576 231.732 227.615C236.235 227.771 240.731 227.151 245.023 225.783C247.732 224.835 250.401 223.287 251.586 220.879C253.71 216.559 250.165 211.923 249.659 207.619C249.367 206.121 249.435 204.576 249.857 203.11C250.106 202.499 250.424 201.919 250.804 201.38C251.287 200.529 251.954 199.795 252.755 199.232C253.391 198.901 254.095 198.723 254.812 198.71C255.528 198.698 256.238 198.852 256.885 199.161C257.286 199.324 257.676 199.511 258.054 199.722Z" fill="white" stroke="#18216D" stroke-miterlimit="10"/>
<path d="M181.774 235.71H223.338C223.614 235.705 223.886 235.632 224.127 235.496C225.272 234.841 224.704 233.38 223.338 233.38H181.774C181.497 233.383 181.225 233.456 180.984 233.593C179.816 234.241 180.376 235.71 181.774 235.71Z" fill="#18216D"/>
<path d="M181.49 235.812H220.929C221.039 235.811 221.146 235.78 221.24 235.723C221.333 235.666 221.41 235.584 221.461 235.487C221.512 235.39 221.535 235.281 221.529 235.171C221.523 235.062 221.488 234.956 221.427 234.865L208.001 215.121C207.946 215.041 207.872 214.975 207.785 214.929C207.698 214.884 207.602 214.86 207.504 214.861H168.041C167.931 214.86 167.824 214.89 167.73 214.946C167.636 215.002 167.559 215.083 167.508 215.18C167.457 215.277 167.433 215.386 167.439 215.495C167.445 215.605 167.481 215.71 167.543 215.801L180.969 235.544C181.026 235.629 181.104 235.698 181.195 235.745C181.286 235.792 181.388 235.815 181.49 235.812Z" fill="#18216D"/>
<path d="M234.228 167.146C235.377 166.823 236.597 166.857 237.727 167.24C239.002 167.715 240.104 168.566 240.885 169.681C241.841 171.039 241.952 172.2 242.102 173.835C242.433 177.567 242.77 181.3 243.113 185.033C243.126 185.643 243.268 186.243 243.531 186.794C243.999 187.462 244.691 187.941 245.482 188.144C246.155 188.394 246.872 188.501 247.588 188.458C248.305 188.416 249.004 188.226 249.644 187.9C250.242 187.5 250.748 186.976 251.128 186.365C251.508 185.753 251.753 185.068 251.847 184.354C252.025 182.925 251.993 181.477 251.752 180.058C251.223 175.548 250.962 171.418 249.099 167.201C247.606 163.813 243.886 161.894 240.238 161.286C236.986 160.754 233.653 161.052 230.548 162.154C229.517 162.455 228.583 163.022 227.839 163.797C226.726 165.108 226.844 166.616 228.495 167.082C229.611 167.479 230.794 167.651 231.977 167.588C232.735 167.482 233.487 167.335 234.228 167.146Z" fill="#18216D"/>
<path d="M240.119 172.081C240.252 171.8 240.44 171.548 240.673 171.341C240.905 171.134 241.176 170.975 241.471 170.875C241.766 170.775 242.078 170.735 242.388 170.758C242.698 170.78 243.001 170.865 243.278 171.007C244.534 171.797 244.313 173.582 243.278 174.458C243.049 174.67 242.773 174.824 242.472 174.906C242.171 174.987 241.854 174.995 241.55 174.927C241.246 174.859 240.962 174.719 240.724 174.518C240.486 174.316 240.3 174.06 240.182 173.771C240.108 173.531 240.086 173.278 240.119 173.029C240.025 172.889 239.975 172.724 239.975 172.555C239.975 172.386 240.025 172.222 240.119 172.081Z" fill="white"/>
<path d="M252.281 211.678L253.727 211.149C253.74 211.096 253.766 211.047 253.804 211.007C253.841 210.967 253.888 210.937 253.94 210.92C257.565 209.578 261.11 208.038 264.712 206.64C263.78 204.107 262.636 201.658 261.292 199.319C260.28 197.233 258.9 195.347 257.217 193.751C255.203 191.856 252.945 190.236 250.504 188.934C249.888 188.618 242.899 185.712 242.852 185.838C242.304 187.681 241.918 189.567 241.699 191.477C241.645 192.717 241.527 193.953 241.344 195.181C240.788 197.174 240.996 199.303 241.928 201.151C243.349 203.702 244.716 206.324 246.264 208.788L248.806 212.831C249.76 212.417 250.745 212.079 251.752 211.82L252.281 211.678Z" fill="#005FEC"/>
<path d="M232.033 176.575C232.432 176.924 232.944 177.117 233.474 177.117C234.004 177.117 234.516 176.924 234.915 176.575C235.089 176.409 235.049 176.133 235.073 175.896C235.097 175.659 234.923 175.398 234.686 175.414C234.614 175.419 234.544 175.441 234.481 175.477C233.754 175.785 232.751 176.251 232.033 176.575Z" fill="#18216D"/>
<path d="M194.544 223.161C194.306 223.012 194.042 222.912 193.766 222.865C193.489 222.818 193.206 222.827 192.933 222.889C192.66 222.952 192.402 223.068 192.174 223.23C191.945 223.393 191.751 223.599 191.602 223.836C191.453 224.074 191.353 224.338 191.306 224.614C191.26 224.891 191.268 225.174 191.331 225.447C191.393 225.72 191.509 225.978 191.672 226.207C191.834 226.435 192.04 226.629 192.277 226.778" stroke="#C9CDD1" stroke-miterlimit="10"/>
<path d="M209.312 267.062C208.254 264.053 207.591 260.855 206.659 257.79C206.284 256.391 205.692 255.058 204.906 253.842C204.106 252.607 202.862 251.727 201.431 251.386C198.983 250.92 196.542 252.665 195.421 254.892C192.499 260.665 194.994 267.07 198.777 271.705C200.064 273.285 201.454 274.762 202.781 276.302C204.108 277.842 205.071 279.903 206.43 281.364C208.53 283.615 212.171 282.154 213.893 280.116C215.946 277.684 213.3 274.391 211.895 272.345C210.806 270.705 209.938 268.929 209.312 267.062Z" fill="#005FEC"/>
<path d="M213.19 275.646L212.803 275.915C210.762 277.297 208.63 278.54 206.422 279.634C205.888 279.881 205.423 280.252 205.063 280.716C204.495 281.569 205.111 282.185 205.229 283.03C205.567 285.631 205.338 288.274 204.558 290.777C203.768 293.147 200.83 296.471 201.573 299.117C202.054 300.862 204.51 300.602 205.877 300.223C207.867 299.582 209.544 298.218 210.576 296.4C211.634 294.655 212.4 292.736 213.332 290.92C214.195 289.237 215.208 287.636 216.356 286.134C216.938 285.453 217.436 284.705 217.841 283.907C218.181 283.048 218.276 282.112 218.114 281.202C217.952 280.293 217.541 279.446 216.925 278.758C216.277 278.015 215.804 277.131 215.18 276.389C214.335 275.33 214.058 275.085 213.19 275.646Z" fill="#18216D"/>
<path d="M184.791 254.616C185.123 255.484 185.289 256.393 185.581 257.277C186.131 258.818 186.854 260.291 187.737 261.668C189.758 265.127 191.785 268.583 193.818 272.037L196.858 277.218C196.992 277.447 197.221 277.928 197.498 278.497C202.994 275.28 208.367 271.858 213.616 268.231C212.431 266.296 211.089 264.432 210.813 262.205C210.67 261.084 210.813 259.931 210.686 258.801C210.355 256.077 208.404 253.889 206.777 251.694C203.871 247.745 201.802 243.236 199.33 238.979C199.038 238.474 198.738 237.976 198.43 237.479C196.759 234.641 194.663 232.076 192.214 229.874C190.967 228.845 189.623 227.938 188.203 227.165C187.01 226.478 186.134 225.491 184.846 224.961C179.255 222.663 174.848 227.181 174.675 232.859C174.556 236.878 176.357 240.701 178.347 244.191C179.71 246.603 181.185 248.94 182.769 251.204C183.579 252.255 184.258 253.401 184.791 254.616Z" fill="white" stroke="#18216D" stroke-miterlimit="10"/>
<path d="M246.169 204.871C246.511 209.547 246.024 214.247 244.731 218.754C244.976 217.909 247.337 216.432 248.016 215.761C248.696 215.09 250.638 213.597 250.757 212.46C250.875 211.323 249.485 209.767 248.956 208.906C248.101 207.512 247.17 206.165 246.169 204.871Z" fill="#18216D"/>
<path d="M243.025 182.095C243.112 185.143 243.357 188.981 240.175 190.592C239.06 191.145 237.782 191.271 236.581 190.948" fill="white"/>
<path d="M243.025 182.095C243.112 185.143 243.357 188.981 240.175 190.592C239.06 191.145 237.782 191.271 236.581 190.948" stroke="#18216D" stroke-miterlimit="10"/>
<path d="M239.25 259.559C246.216 258.43 252.921 262.655 259.957 263.2L239.25 259.559Z" fill="white"/>
<path d="M239.25 259.559C246.216 258.43 252.921 262.655 259.957 263.2" stroke="#18216D" stroke-miterlimit="10"/>
<path d="M255.827 257.372C259.471 258.366 263.288 258.549 267.01 257.909L255.827 257.372Z" fill="white"/>
<path d="M255.827 257.372C259.471 258.366 263.288 258.549 267.01 257.909" stroke="#18216D" stroke-miterlimit="10"/>
<path d="M269.829 233.23C270.568 239.388 268.867 245.59 265.091 250.509" stroke="#18216D" stroke-miterlimit="10"/>
<path d="M166.777 281.222C166.525 279.461 166.319 274.904 164.171 274.24C159.18 272.7 162.323 284.799 162.766 286.363C162.802 286.506 162.867 286.641 162.956 286.759C163.046 286.877 163.158 286.976 163.287 287.05C163.465 287.496 163.734 287.901 164.076 288.238C164.419 288.575 164.828 288.837 165.277 289.008C165.479 289.064 165.693 289.066 165.895 289.011C166.098 288.957 166.283 288.85 166.43 288.7C166.562 288.57 166.679 288.424 166.777 288.266C166.91 288.164 167.016 288.03 167.085 287.877C167.154 287.724 167.184 287.557 167.172 287.389C167.176 287.369 167.176 287.347 167.172 287.326C167.646 285.455 166.998 282.754 166.777 281.222Z" fill="#18216D"/>
<path d="M155.484 270.102C153.802 270.197 152.049 272.187 150.943 273.261C149.284 274.901 147.816 276.724 146.568 278.695C146.48 278.822 146.42 278.968 146.393 279.121C146.367 279.274 146.373 279.431 146.413 279.581C146.453 279.731 146.525 279.871 146.624 279.99C146.723 280.11 146.847 280.207 146.987 280.274C147.397 281.53 148.898 281.727 150.146 281.427C152.063 280.883 153.748 279.723 154.939 278.126C156.037 276.744 157.403 274.912 157.672 273.127C157.885 271.705 157.127 270.007 155.484 270.102Z" fill="#18216D"/>
<path d="M169.834 260.926C166.927 261.115 161.51 261.147 159.844 264.085C159.686 264.343 159.582 264.631 159.537 264.93C159.491 265.23 159.506 265.535 159.579 265.829C159.653 266.123 159.784 266.399 159.965 266.642C160.145 266.885 160.373 267.089 160.633 267.243C162.213 268.349 164.258 267.883 165.964 267.409C166.215 267.347 166.436 267.199 166.588 266.991C167.914 266.696 169.188 266.206 170.371 265.538C171.5 264.906 172.977 263.958 172.811 262.513C172.645 261.068 171.05 260.847 169.834 260.926Z" fill="#18216D"/>
<path d="M171.602 250.857C170.671 248.322 168.586 246.237 166.438 244.705C166.313 244.606 166.167 244.538 166.011 244.506C165.855 244.474 165.694 244.479 165.541 244.521C165.387 244.562 165.246 244.639 165.127 244.745C165.008 244.851 164.916 244.983 164.858 245.131C164.428 245.016 163.973 245.024 163.547 245.155C163.121 245.287 162.741 245.536 162.45 245.873C160.917 247.548 161.723 250.612 162.781 252.325C163.942 254.189 166.975 256.274 169.257 255.958C171.737 255.611 172.345 252.87 171.602 250.857Z" fill="#18216D"/>
<path d="M151.575 260.799C151.342 260.719 151.089 260.719 150.856 260.799C150.605 260.745 150.344 260.749 150.094 260.811C149.844 260.872 149.612 260.991 149.414 261.156C149.217 261.321 149.06 261.529 148.956 261.765C148.851 262 148.801 262.256 148.811 262.513C148.811 263.974 149.885 265.506 150.935 266.462C152.152 267.548 153.686 268.212 155.31 268.357C155.624 268.355 155.924 268.229 156.146 268.008C156.367 267.786 156.493 267.486 156.495 267.172C156.463 265.724 155.968 264.324 155.083 263.177C154.197 262.03 152.968 261.197 151.575 260.799Z" fill="#18216D"/>
<path d="M184.625 258.391C184.135 257.601 183.899 256.724 183.101 256.235C182.658 255.977 182.145 255.866 181.635 255.915C181.125 255.965 180.643 256.173 180.258 256.511C178.528 257.79 177.557 260.286 177.265 262.347C177.028 264.037 176.949 266.849 179.058 267.362C180.597 267.733 181.561 266.612 182.216 265.332C182.755 264.653 183.184 263.894 183.488 263.082C183.894 262.072 184.144 261.007 184.23 259.923C184.364 259.855 184.482 259.76 184.576 259.644C184.67 259.527 184.738 259.391 184.776 259.246C184.813 259.101 184.819 258.95 184.793 258.802C184.767 258.655 184.71 258.514 184.625 258.391Z" fill="#18216D"/>
<path d="M227.168 252.768C225.588 250.872 223.022 253.155 221.719 254.229C220.65 255.121 219.667 256.109 218.781 257.182C218.204 257.885 217.138 258.872 217.265 259.867C217.265 259.962 217.304 260.057 217.328 260.152C217.263 260.384 217.218 260.622 217.193 260.862C217.198 261.175 217.324 261.474 217.545 261.696C217.766 261.917 218.065 262.043 218.378 262.047C220.803 262.047 223.116 259.931 224.759 258.335C225.975 257.151 228.7 254.631 227.168 252.768Z" fill="#18216D"/>
<path d="M217.644 242.944C216.112 241.688 213.908 240.63 211.879 240.93C209.509 241.277 208.87 243.259 209.794 245.297C209.98 245.7 210.202 246.086 210.457 246.45C210.479 246.499 210.497 246.549 210.512 246.6C210.925 247.611 211.568 248.512 212.391 249.231C213.214 249.949 214.193 250.466 215.251 250.738C216.83 251.141 220.629 251.141 220.984 248.938C221.34 246.734 219.223 244.168 217.644 242.944Z" fill="#18216D"/>
<path d="M239.243 240.243C238.319 237.952 235.191 237.605 233.13 237.826C231.337 238.024 227.942 238.292 226.646 239.927C225.683 240.717 224.956 241.885 225.754 243.046C226.757 244.499 229.766 244.562 231.322 244.626C232.926 244.706 234.523 244.368 235.957 243.646C237.671 243.228 240.032 242.193 239.243 240.243Z" fill="#18216D"/>
<path d="M240.167 250.446C238.524 248.614 235.318 248.298 234.133 250.809C233.43 252.31 233.809 253.968 234.544 255.548C234.847 256.838 235.539 258.004 236.526 258.888L236.866 259.394C236.976 259.556 237.122 259.689 237.294 259.784C237.465 259.878 237.657 259.93 237.853 259.936C238.048 259.943 238.243 259.902 238.42 259.819C238.597 259.736 238.752 259.611 238.872 259.457C239.549 259.406 240.204 259.189 240.778 258.825C241.353 258.462 241.829 257.963 242.165 257.372C243.12 255.405 241.517 251.946 240.167 250.446Z" fill="#18216D"/>
<path d="M256.672 244.784C256.7 244.654 256.699 244.52 256.67 244.39C256.641 244.261 256.584 244.139 256.504 244.034C256.424 243.928 256.322 243.841 256.205 243.778C256.088 243.715 255.959 243.679 255.827 243.67C252.952 243.275 249.817 242.809 247.077 244.041C245.671 244.673 243.918 246.363 244.771 248.093C245.853 250.17 249.904 250.375 251.878 250.462C253.987 250.525 256.854 249.996 257.959 247.943C258.773 246.45 258.046 245.431 256.672 244.784Z" fill="#18216D"/>
<path d="M209.612 252.634C209.344 251.338 208.238 250.92 207.046 250.928C206.939 250.68 206.745 250.479 206.501 250.364C206.256 250.249 205.978 250.228 205.719 250.304C203.211 250.9 200.982 252.335 199.401 254.371C198.311 255.785 196.819 258.177 198.738 259.583C200.657 260.989 203.752 259.007 205.379 257.838C206.777 256.843 210.031 254.616 209.612 252.634Z" fill="#18216D"/>
<path d="M201.186 266.667C197.056 267.164 193.77 272.006 191.504 275.022C191.363 275.188 191.286 275.398 191.286 275.615C191.286 275.831 191.363 276.041 191.504 276.207C191.4 276.472 191.351 276.756 191.359 277.041C191.367 277.326 191.432 277.606 191.551 277.865C193.217 281.395 199.227 275.354 200.538 273.917C201.683 272.685 203.547 270.758 203.808 269.044C204.068 267.33 202.686 266.485 201.186 266.667Z" fill="#18216D"/>
<path d="M193.052 251.844C192.999 251.671 192.908 251.513 192.786 251.38C192.665 251.247 192.515 251.142 192.348 251.074C192.181 251.006 192.001 250.976 191.82 250.986C191.64 250.996 191.465 251.047 191.306 251.133C187.429 253.557 187.042 259.733 187.279 263.824C187.286 264.068 187.37 264.303 187.519 264.496C187.668 264.689 187.874 264.83 188.108 264.898C188.228 265.343 188.499 265.733 188.876 265.999C189.252 266.266 189.709 266.393 190.169 266.359C192.538 266.296 193.454 262.608 193.826 260.831C194.458 257.824 194.189 254.698 193.052 251.844Z" fill="#18216D"/>
<path d="M202.899 237.179C202.846 236.936 202.706 236.722 202.505 236.576C202.304 236.43 202.057 236.364 201.81 236.389H201.668C199.504 235.447 197.105 235.185 194.789 235.639C192.08 235.639 188.763 236.705 188.866 239.714C188.992 243.457 196.487 242.083 198.682 241.656C200.515 241.356 205.537 239.311 202.899 237.179Z" fill="#18216D"/>
<path d="M185.075 242.304C184.807 242.399 184.538 242.517 184.286 242.62C183.69 242.781 183.128 243.049 182.627 243.409C181.715 243.88 180.848 244.432 180.037 245.06C178.718 246.095 176.799 247.635 176.254 249.293C175.772 250.722 176.933 251.844 178.323 251.844C179.903 251.844 181.569 250.793 182.754 249.869C183.725 249.08 186.884 245.747 186.497 243.828C186.655 242.983 186.055 241.948 185.075 242.304Z" fill="#18216D"/>
<path d="M184.815 229.297C184.341 227.038 182.659 227.591 181.103 227.876C180.911 227.887 180.719 227.887 180.527 227.876C178.947 227.986 177.549 230.245 176.854 231.54C175.97 233.119 175.275 235.228 176.23 236.95C178.205 240.543 182.367 235.954 183.488 234.035C184.27 232.732 185.146 230.876 184.815 229.297Z" fill="#18216D"/>
<path d="M317.765 46.1276H172.455V133.787H317.765V46.1276Z" fill="white" stroke="#18216D" stroke-miterlimit="10"/>
<path d="M183.385 129.823C182.659 125.164 183.543 120.094 186.544 116.453C187.958 114.747 189.814 113.349 190.706 111.328C191.114 110.292 191.359 109.2 191.433 108.09C192.033 101.985 190.998 95.3197 194.276 90.1312C195.595 88.0384 197.522 86.3958 199.014 84.4057C201.707 80.7335 202.702 76.082 205.111 72.2281C207.519 68.3742 212.503 65.2864 216.522 67.4187C220.542 69.5509 220.826 75.0395 219.602 79.312C218.378 83.5844 216.064 87.7384 216.467 92.1608C216.83 96.0226 219.255 99.4579 219.689 103.32C220.171 107.576 218.189 111.746 218.11 116.026C217.968 121.46 220.818 126.719 220.179 132.113C219.539 137.507 215.551 141.858 210.749 144.157C205.711 146.573 194.584 149.005 189.664 145.057C186.165 142.277 184.009 133.858 183.385 129.823Z" fill="#005FEC"/>
<path d="M254.461 134.561C253.734 129.902 254.619 124.832 257.62 121.191C260.1 118.19 262.24 117.132 262.121 113.152C261.979 108.113 260.289 103.612 261.079 98.4313C262.129 91.5448 266.102 85.4166 267.531 78.6012C268.676 73.0731 268.321 66.8895 271.835 62.5223C272.86 61.1258 274.38 60.1738 276.084 59.861C280.325 59.2845 283.318 64.2124 283.523 68.4927C283.728 72.773 282.433 77.1797 283.649 81.2705C284.952 85.6772 288.956 88.9703 289.92 93.4639C290.48 96.1095 289.92 98.8814 290.283 101.559C290.591 103.849 291.57 105.981 292.352 108.153C296.838 120.607 295.393 142.395 281.817 148.895C276.779 151.311 265.651 153.744 260.731 149.795C257.241 147.015 255.085 138.597 254.461 134.561Z" fill="#005FEC"/>
<path d="M273.817 141.7V141.653C273.902 136.585 275.099 131.598 277.323 127.043C281.011 119.517 287.479 113.183 289.019 104.931C289.762 100.982 289.264 96.8597 289.422 92.8163C289.58 88.7729 290.551 84.461 293.537 81.7601C294.926 80.4966 297.059 79.6515 298.678 80.615C299.559 81.2385 300.212 82.1349 300.533 83.1658C302.113 87.2645 302.042 91.8055 302.626 96.1727C303.55 103.067 308.715 106.558 309.505 113.231C310.397 120.836 309.292 128.52 307.072 135.809C304.656 143.754 302.713 152.046 294.437 156.018C287.392 159.398 280.474 160.441 276.194 152.67C274.469 149.28 273.65 145.501 273.817 141.7Z" fill="#005FEC"/>
<path d="M206.54 132.089C206.43 130.242 207.456 128.536 208.522 127.035C212.558 121.357 217.66 116.5 221.355 110.585C223.401 107.316 225.723 104.212 226.528 100.319C226.84 98.432 226.983 96.5211 226.955 94.609C226.936 90.7675 227.468 86.9432 228.534 83.2527C230.303 77.7246 234.165 72.7809 239.393 70.2696C248.08 66.1077 261.505 66.471 266.244 76.4373C268.099 80.3307 268.463 84.84 268.486 89.073C268.486 94.2062 267.926 99.3789 268.605 104.473C269.395 110.198 272.632 113.72 276.818 117.401C279.701 119.936 281.904 122.344 282.401 126.214C282.875 129.902 281.162 133.566 278.713 136.236C275.246 140.018 270.405 142.324 265.43 143.58C260.455 144.836 255.29 145.12 250.173 145.428C244.321 145.783 238.437 146.17 232.617 145.515C226.797 144.859 220.968 143.075 216.333 139.497C214.619 138.178 213.016 136.575 211.026 135.675C209.036 134.775 206.706 134.964 206.54 132.089Z" fill="#18216D"/>
<path d="M248.704 138.676C246.324 138.988 243.925 139.13 241.525 139.102C240.12 139.102 238.003 139.189 236.858 138.241C235.713 137.294 235.658 135.691 235.626 134.443C235.508 129.973 236.416 125.558 236.874 121.112C237.221 117.535 237.253 113.807 236.155 110.348C235.152 107.189 233.636 104.417 233.138 101.037C233.02 100.248 233.138 98.3681 232.609 97.7126C232.08 97.0571 231.18 97.1993 230.666 96.5359C230.166 95.8282 229.932 94.9671 230.003 94.1036C230.073 93.1375 230.403 92.2084 230.959 91.4156C231.516 90.6227 232.277 89.9959 233.162 89.6021C233.195 89.5929 233.224 89.5717 233.243 89.5426C233.262 89.5135 233.27 89.4785 233.265 89.4442C232.736 83.9161 235.073 78.08 239.977 75.387C245.016 72.6309 250.812 70.5776 256.127 74.1235C258.706 75.9134 260.56 78.5657 261.355 81.6022C261.624 82.5261 262.493 91.1421 262.548 91.5606C262.973 91.4997 263.407 91.5635 263.797 91.7444C264.186 91.9252 264.515 92.2153 264.743 92.5794C265.19 93.3148 265.425 94.1592 265.422 95.0196C265.481 95.8942 265.267 96.7655 264.811 97.5136C264.354 98.2618 263.676 98.85 262.872 99.1973C260.897 99.987 261.434 102.048 260.945 103.936C260.342 106.291 259.267 108.499 257.786 110.427C257.439 110.827 257.154 111.277 256.941 111.762C256.775 112.344 256.727 112.953 256.799 113.555C257.141 119.915 257.288 126.28 257.241 132.65C257.241 134.569 256.949 136.149 255.211 137.073C253.182 138.123 250.931 138.368 248.704 138.676Z" fill="white" stroke="#18216D" stroke-miterlimit="10"/>
<path d="M239.48 74.6131C236.887 75.6417 234.678 77.4524 233.162 79.7937C231.739 82.3238 231.119 85.2268 231.385 88.1174C231.472 89.0651 232.119 90.1549 233.059 90.0365C233.802 89.9417 234.22 89.1599 234.639 88.5281C237.316 84.461 243.721 83.5923 248.206 83.2922C249.343 83.2211 250.481 83.1974 251.626 83.2211C254.698 83.2843 257.699 84.1135 260.731 84.2399C263.1 84.3425 265.73 82.6604 267.239 80.9467C268.887 79.0702 269.786 76.6525 269.766 74.155C269.8 73.0549 269.494 71.9711 268.889 71.0514C267.863 69.6457 265.88 69.1008 264.222 69.1956C262.645 69.2801 261.085 69.5613 259.578 70.0327C258.089 70.6469 256.541 71.1099 254.958 71.4147C253.324 71.6121 251.681 72.007 250.031 72.2597C246.469 72.773 242.812 73.1521 239.48 74.6131Z" fill="#18216D"/>
<path d="M248.759 108.271C247.377 108.69 246.287 109.061 244.858 108.508C244.471 108.35 244.194 109.006 244.573 109.179C245.955 109.827 247.914 109.969 249.114 108.879C249.172 108.823 249.209 108.748 249.22 108.668C249.23 108.588 249.214 108.507 249.173 108.437C249.133 108.367 249.07 108.313 248.995 108.283C248.92 108.253 248.837 108.249 248.759 108.271Z" fill="#18216D"/>
<path d="M248.506 99.2684H248.167L245.632 99.6632C242.647 100.129 244.724 103.951 247.093 103.375C247.538 103.283 247.957 103.092 248.317 102.814C248.748 102.394 249.078 101.881 249.28 101.314C249.444 100.99 249.549 100.64 249.588 100.279C249.608 100.098 249.578 99.9146 249.502 99.749C249.425 99.5834 249.305 99.4418 249.154 99.3395C248.95 99.2498 248.724 99.225 248.506 99.2684Z" fill="#18216D"/>
<path d="M246.816 96.6307C246.224 96.6307 246.816 93.1401 246.864 92.6821C246.973 91.6298 246.943 90.5678 246.777 89.5231C246.777 89.3573 246.516 89.4047 246.508 89.5231C246.406 91.7028 245.916 93.8272 245.79 95.9831C245.742 96.7728 246.011 97.5626 246.911 97.2862C246.973 97.2509 247.024 97.1977 247.055 97.1334C247.087 97.0692 247.098 96.9969 247.088 96.926C247.078 96.8552 247.046 96.7891 246.998 96.7364C246.949 96.6837 246.886 96.6469 246.816 96.6307Z" fill="#18216D"/>
<path d="M240.08 92.3899C240.046 92.2772 239.978 92.1781 239.884 92.1071C239.79 92.0361 239.676 91.9968 239.559 91.995H239.503C239.395 91.9952 239.288 92.0237 239.194 92.0777C239.1 92.1317 239.021 92.2094 238.966 92.303C238.966 92.303 238.966 92.303 238.966 92.3425C238.885 92.4403 238.835 92.5608 238.823 92.6879C238.812 92.815 238.84 92.9425 238.903 93.0532L238.951 93.1164C239.282 93.5744 240.167 93.4876 240.127 92.8005C240.128 92.6622 240.112 92.5244 240.08 92.3899Z" fill="#18216D"/>
<path d="M254.263 91.6633C253.734 91.1737 252.937 91.9713 253.474 92.453C253.49 92.5362 253.519 92.6161 253.561 92.69C253.606 92.7686 253.672 92.8339 253.751 92.8792C253.83 92.9246 253.92 92.9484 254.011 92.9484C254.102 92.9484 254.191 92.9246 254.27 92.8792C254.349 92.8339 254.415 92.7686 254.461 92.69C254.545 92.5209 254.572 92.3288 254.536 92.1432C254.5 91.9577 254.404 91.789 254.263 91.6633Z" fill="#18216D"/>
<path d="M250.315 115.434C252.314 116.62 254.397 117.66 256.546 118.546C256.729 118.624 256.927 118.656 257.125 118.641C257.324 118.625 257.515 118.562 257.683 118.456C257.852 118.351 257.992 118.206 258.092 118.035C258.193 117.863 258.25 117.67 258.26 117.472C258.324 115.484 258.602 113.509 259.089 111.58C259.357 110.585 260.242 109.772 260.242 108.745C260.248 108.602 260.215 108.46 260.147 108.334C260.044 108.192 259.893 108.092 259.722 108.051C259.551 108.011 259.371 108.033 259.215 108.113C258.902 108.278 258.631 108.513 258.425 108.8C256.238 111.406 253.892 112.402 250.67 113.16C250.429 113.215 250.21 113.342 250.041 113.523C249.872 113.704 249.761 113.932 249.723 114.177C249.685 114.421 249.721 114.672 249.826 114.896C249.932 115.12 250.102 115.308 250.315 115.434Z" fill="#18216D"/>
<path d="M317.765 46.1276H172.455V133.787H317.765V46.1276Z" stroke="#18216D" stroke-miterlimit="10"/>
<path d="M176.838 40.8127H313.398C314.655 40.8127 315.86 41.3119 316.749 42.2006C317.637 43.0892 318.137 44.2944 318.137 45.5511V51.4898H172.037V45.5511C172.037 44.9235 172.161 44.3021 172.403 43.7231C172.646 43.144 173 42.6189 173.447 42.178C173.894 41.7372 174.424 41.3895 175.006 41.1551C175.588 40.9207 176.211 40.8044 176.838 40.8127Z" fill="#18216D"/>
<path d="M178.773 49.6261C180.387 49.6261 181.695 48.3178 181.695 46.7041C181.695 45.0903 180.387 43.7821 178.773 43.7821C177.16 43.7821 175.851 45.0903 175.851 46.7041C175.851 48.3178 177.16 49.6261 178.773 49.6261Z" fill="white"/>
<path d="M192.459 46.5698C192.484 47.1454 192.337 47.7154 192.038 48.2076C191.738 48.6998 191.3 49.0923 190.777 49.3353C190.255 49.5784 189.672 49.6612 189.103 49.5733C188.534 49.4853 188.003 49.2306 187.578 48.8412C187.154 48.4519 186.854 47.9454 186.717 47.3858C186.58 46.8262 186.612 46.2385 186.809 45.6971C187.006 45.1557 187.359 44.6848 187.824 44.344C188.288 44.0031 188.843 43.8076 189.419 43.7821C190.191 43.75 190.945 44.0253 191.515 44.5478C192.085 45.0704 192.424 45.7974 192.459 46.5698Z" fill="white"/>
<path d="M192.459 46.5698C192.484 47.1454 192.337 47.7154 192.037 48.2076C191.738 48.6998 191.3 49.0923 190.777 49.3353C190.255 49.5784 189.672 49.6612 189.103 49.5733C188.533 49.4853 188.003 49.2306 187.578 48.8412C187.154 48.4519 186.854 47.9454 186.717 47.3858C186.58 46.8262 186.612 46.2385 186.809 45.6971C187.006 45.1557 187.359 44.6848 187.824 44.344C188.288 44.0031 188.843 43.8076 189.419 43.7821C190.191 43.75 190.945 44.0253 191.515 44.5478C192.085 45.0703 192.424 45.7974 192.459 46.5698Z" fill="white"/>
<path d="M186.149 43.1503L192.941 50.2578" stroke="#18216D" stroke-miterlimit="10"/>
<path d="M185.991 50.0999L193.099 43.3003" stroke="#18216D" stroke-miterlimit="10"/>
<path d="M149.553 15.7231H42.9399V103.383H149.553V15.7231Z" fill="white" stroke="#18216D" stroke-miterlimit="10"/>
<path d="M54.3833 47.6518C54.1316 46.0948 54.2337 44.5012 54.6821 42.9891C55.1306 41.477 55.9138 40.0854 56.9736 38.9174C57.7633 38.1276 58.553 37.5985 59.0506 36.5482C59.2343 36.0594 59.3589 35.5503 59.4217 35.0319C59.7515 33.4902 60.4013 32.0349 61.3291 30.7602C62.2569 29.4855 63.442 28.4199 64.8077 27.6322C67.7771 25.7526 70.7385 25.7131 74.1344 25.1445C75.1373 24.9787 76.1008 24.6628 77.0958 24.4969C78.0445 24.3483 79.0089 24.3297 79.9626 24.4417C82.7484 24.827 85.3627 26.0121 87.4887 27.8533C88.8778 29.057 90.0203 30.5186 90.8529 32.1573C91.6426 33.4367 91.9506 34.8977 92.6772 36.1849C93.5143 37.6538 94.5093 37.6064 95.923 38.2856C97.1975 38.9032 98.3091 39.8118 99.1678 40.938C100.027 42.0643 100.609 43.3767 100.867 44.7693C101.996 51.6399 94.9516 56.6152 88.6891 55.1937C83.9507 54.1354 76.8431 54.167 73.2262 57.855C71.7178 59.3713 70.4463 61.1561 68.6852 62.3723C68.5036 62.4908 68.322 62.6092 68.1324 62.7198C66.5066 63.6587 64.6722 64.1772 62.7954 64.2282C60.9186 64.2792 59.0587 63.8612 57.3842 63.012C52.9539 60.5638 53.3013 55.4464 54.7229 51.2292C54.8855 50.8491 54.9766 50.4421 54.9914 50.0288C54.9517 49.6738 54.864 49.3258 54.7308 48.9943C54.5803 48.5565 54.4641 48.1076 54.3833 47.6518Z" fill="#005FEC"/>
<path d="M75.7691 74.4314C77.5302 77.8904 81.2972 79.6041 85.4433 79.0434H85.5381C86.5876 78.8741 87.5922 78.4947 88.4915 77.9278C89.3909 77.3609 90.1665 76.6183 90.7719 75.7444C91.3774 74.8706 91.8001 73.8834 92.0149 72.8423C92.2297 71.8011 92.232 70.7273 92.0217 69.6851L90.6239 62.5144C90.3735 61.5768 90.3304 60.5958 90.4976 59.6398C90.7947 58.8035 91.1953 58.0075 91.6901 57.2706C94.849 51.5451 91.2636 45.0377 88.3416 40.0703C87.176 38.0585 85.5256 36.3701 83.5408 35.1591C81.5559 33.948 79.2997 33.2527 76.9774 33.1365C66.7662 32.718 61.7357 41.9894 63.7179 51.0713C64.8551 56.2361 67.9587 59.9399 71.9153 63.2252C75.8718 66.5104 76.0929 69.5114 75.7691 74.4314Z" fill="white" stroke="#18216D" stroke-miterlimit="10"/>
<path d="M66.1898 42.1158C66.0139 42.8931 65.9818 43.696 66.095 44.4849C66.3203 46.3934 65.9999 48.3266 65.171 50.0604C64.701 50.8695 64.1067 51.5997 63.4099 52.2243C62.85 52.8068 62.1713 53.262 61.4198 53.5589C61.0436 53.7007 60.6386 53.7489 60.2396 53.6994C59.8407 53.6499 59.4597 53.5041 59.1296 53.2746C58.8161 52.9912 58.5751 52.6368 58.4267 52.2411C58.2783 51.8454 58.2269 51.4199 58.2767 51.0002C58.3752 50.1645 58.5605 49.3414 58.8295 48.5441C59.2244 47.0516 59.3823 45.5037 59.8009 44.019C60.1433 42.4983 60.9927 41.1393 62.2095 40.1651C62.6739 39.8279 63.2088 39.6008 63.7739 39.5009C64.339 39.4011 64.9193 39.431 65.4711 39.5886C65.866 39.7229 66.7031 40.0783 66.8452 40.5205C67.0427 41.1523 66.3872 41.484 66.1898 42.1158Z" fill="#005FEC"/>
<path d="M68.9458 41.3892C69.9618 41.1207 70.9446 40.7393 71.8757 40.252C72.0949 40.1137 72.344 40.0298 72.6022 40.0072C72.8255 40.0221 73.042 40.0897 73.234 40.2046C74.6637 41.0109 76.2299 41.5463 77.8539 41.7841C79.4886 41.8867 81.3129 41.1207 81.8657 39.5807C81.9447 39.3675 82.0395 39.099 82.2685 39.0674C82.3495 39.068 82.4295 39.086 82.5031 39.12C82.5766 39.1541 82.642 39.2034 82.6949 39.2648C84.5508 40.8443 86.4462 43.5531 89.2655 42.2895C90.766 41.6182 91.5399 39.9203 91.6347 38.2461C91.8084 34.6133 89.1233 31.2886 85.8144 29.7723C82.5054 28.256 78.7068 28.2718 75.0978 28.7378C72.5428 29.0005 70.0484 29.6808 67.7138 30.7516C65.2104 31.9836 64.2943 33.9105 62.928 36.2797C62.563 36.8036 62.3239 37.4047 62.2294 38.0362C62.1349 38.6677 62.1875 39.3125 62.3831 39.9203C63.1729 41.6419 65.4394 42.0052 67.3031 41.7367C67.8575 41.6561 68.4062 41.54 68.9458 41.3892Z" fill="#005FEC"/>
<path d="M84.5271 62.5224C84.2327 62.6656 83.9293 62.7896 83.6189 62.8935C83.2319 63.0278 81.5419 63.0594 81.384 63.2884C80.8943 64.007 82.6712 64.1729 82.9634 64.2203C83.7189 64.3294 84.4603 64.5201 85.1747 64.7889C85.7221 65.0324 86.2502 65.3176 86.7541 65.6418L88.7047 66.7869C88.2646 64.603 88.0006 62.3872 87.915 60.1611C87.915 60.477 86.2882 61.4562 86.0197 61.6379C85.5433 61.967 85.0446 62.2626 84.5271 62.5224Z" fill="#18216D"/>
<path d="M71.3625 48.3467C71.2232 48.3077 71.0759 48.3077 70.9366 48.3467C70.7974 48.3857 70.6715 48.4622 70.5727 48.5678C70.5252 48.6187 70.4897 48.6796 70.4688 48.7461C70.4479 48.8125 70.4422 48.8828 70.452 48.9517C70.4619 49.0207 70.487 49.0865 70.5257 49.1445C70.5644 49.2024 70.6155 49.2509 70.6754 49.2865C70.7217 49.3436 70.7792 49.3906 70.8444 49.4245C70.9096 49.4585 70.9811 49.4787 71.0545 49.4839C71.1505 49.4891 71.2465 49.4733 71.3359 49.4376C71.4252 49.4019 71.5057 49.3473 71.5718 49.2774C71.6379 49.2076 71.6881 49.1241 71.7187 49.033C71.7494 48.9418 71.7599 48.8451 71.7494 48.7495C71.7371 48.6495 71.6927 48.5563 71.623 48.4837C71.5532 48.4111 71.4618 48.363 71.3625 48.3467Z" fill="#18216D"/>
<path d="M84.2665 46.4277C84.177 46.2934 84.0426 46.1954 83.8874 46.1512C83.869 46.1157 83.8422 46.0852 83.8093 46.0624C83.7764 46.0397 83.7384 46.0253 83.6986 46.0207C83.6589 46.016 83.6186 46.0211 83.5813 46.0356C83.544 46.0501 83.5108 46.0736 83.4847 46.1039C83.1925 46.3961 83.1293 46.475 83.2162 46.8936C83.2325 46.9636 83.2676 47.0277 83.3177 47.0792C83.3678 47.1307 83.431 47.1676 83.5005 47.1858C83.6483 47.2324 83.8078 47.2265 83.9518 47.1689C84.0957 47.1113 84.2153 47.0057 84.2902 46.8699C84.3289 46.8016 84.3473 46.7237 84.3431 46.6453C84.3389 46.5669 84.3123 46.4914 84.2665 46.4277Z" fill="#18216D"/>
<path d="M79.7333 50.1078C79.5043 49.2391 78.8962 48.3467 78.7857 47.4701C78.7857 47.4073 78.7607 47.347 78.7163 47.3026C78.6718 47.2582 78.6116 47.2332 78.5487 47.2332C78.4859 47.2332 78.4257 47.2582 78.3812 47.3026C78.3368 47.347 78.3118 47.4073 78.3118 47.4701C78.336 48.2163 78.4855 48.9532 78.7541 49.6498C78.9752 50.4948 78.9831 51.3872 79.2437 52.2085C79.3464 52.5323 79.9071 52.6034 79.9703 52.2085C80.0377 51.4994 79.957 50.7841 79.7333 50.1078Z" fill="#18216D"/>
<path d="M85.2853 45.4247C84.7256 45.0282 84.0457 44.8382 83.3616 44.8871C82.6774 44.9361 82.0315 45.221 81.5341 45.6932C81.5006 45.7349 81.4823 45.7867 81.4819 45.8401C81.4816 45.8935 81.4993 45.9455 81.5323 45.9875C81.5652 46.0296 81.6114 46.0593 81.6633 46.0718C81.7152 46.0844 81.7699 46.079 81.8184 46.0565C82.304 45.7571 82.8387 45.5459 83.3978 45.4326C83.9745 45.4229 84.5479 45.5221 85.0878 45.7248C85.1273 45.7431 85.172 45.7465 85.2138 45.7346C85.2556 45.7226 85.2918 45.6961 85.3157 45.6597C85.3396 45.6234 85.3496 45.5797 85.3441 45.5366C85.3385 45.4935 85.3176 45.4538 85.2853 45.4247Z" fill="#18216D"/>
<path d="M71.1888 46.9568C70.3258 46.897 69.4741 47.1809 68.8196 47.7465C68.7781 47.7942 68.7528 47.8538 68.7472 47.9167C68.7416 47.9797 68.756 48.0428 68.7884 48.0971C68.8208 48.1514 68.8695 48.194 68.9276 48.219C68.9856 48.2439 69.0501 48.2499 69.1118 48.2361C70.0673 47.9834 71.5441 47.1147 72.4918 47.9044C72.5203 47.9306 72.5564 47.947 72.5949 47.9513C72.6334 47.9555 72.6722 47.9473 72.7057 47.9279C72.7392 47.9085 72.7657 47.8789 72.7812 47.8434C72.7967 47.808 72.8004 47.7685 72.7919 47.7307C72.6261 47.0436 71.7653 46.9726 71.1888 46.9568Z" fill="#18216D"/>
<path d="M79.2518 57.2627C79.2125 57.0316 79.2634 56.7942 79.3939 56.5994C79.5608 56.2695 79.748 55.9504 79.9546 55.6438C80.228 55.174 80.6386 54.7992 81.1313 54.5698C81.3794 54.4626 81.6573 54.4467 81.916 54.5247C82.1747 54.6028 82.3975 54.7698 82.5449 54.9962C82.6296 55.2382 82.6516 55.4976 82.6088 55.7504C82.5659 56.0031 82.4598 56.2409 82.3001 56.4414C81.9131 57.0495 79.694 58.7 79.2518 57.2627Z" fill="#18216D"/>
<path d="M89.0051 38.791C87.8279 38.7601 86.6792 38.4225 85.6724 37.8117C85.0406 37.3537 83.398 35.9164 83.5244 35.0556C83.5639 34.8029 83.2164 34.5975 83.0742 34.8661C82.4977 35.9559 83.9192 37.4248 84.6537 38.1434C85.8383 39.3359 87.4098 39.6676 89.0209 39.8808C89.7079 39.9677 89.7079 38.8463 89.0051 38.791Z" fill="white"/>
<path d="M76.7403 37.8275C75.981 37.7019 75.2522 37.4339 74.5923 37.0378C74.0158 36.6508 72.5548 35.5294 73.1629 34.7634C73.3208 34.5659 73.0602 34.2816 72.8786 34.4791C72.0888 35.3399 72.9654 36.4218 73.613 37.0773C74.4027 37.867 75.6663 38.7594 76.7719 38.2461C76.8045 38.2204 76.8303 38.1872 76.8471 38.1492C76.8638 38.1112 76.8709 38.0697 76.8677 38.0284C76.8646 37.987 76.8514 37.947 76.8292 37.912C76.8069 37.877 76.7764 37.848 76.7403 37.8275Z" fill="white"/>
<path d="M68.3851 38.2777C67.8069 38.1665 67.2205 38.1031 66.6319 38.0881C66.237 38.0171 64.4128 37.5432 64.8945 36.8641C65.0524 36.6271 64.6813 36.3349 64.4917 36.5561C63.1413 38.1355 67.3505 39.5175 68.4404 38.712C68.4781 38.6867 68.5081 38.6514 68.5269 38.61C68.5457 38.5687 68.5526 38.5229 68.5469 38.4778C68.5412 38.4327 68.523 38.3901 68.4944 38.3547C68.4658 38.3194 68.428 38.2927 68.3851 38.2777Z" fill="white"/>
<path d="M149.553 15.7231H42.9399V103.383H149.553V15.7231Z" stroke="#18216D" stroke-miterlimit="10"/>
<path d="M65.8026 110.964C60.0534 110.293 54.2173 109.385 48.5312 110.467C48.9735 101.464 50.2292 92.3819 53.7514 84.0898C57.2735 75.7977 63.2281 68.2952 71.3228 64.3466C81.4313 59.3555 93.7037 59.3555 104.357 62.5065C114.813 65.6102 124.598 73.6101 132.045 81.3731C135.975 85.4721 139.446 89.987 142.398 94.838C143.155 95.9985 143.76 97.2512 144.199 98.5655C144.548 99.7846 144.638 101.064 144.461 102.319C144.284 103.575 143.845 104.78 143.172 105.855C138.702 112.915 128.112 110.704 121.257 111.383C115.113 112.015 108.953 112.417 102.778 112.591C90.4294 112.954 78.0713 112.41 65.8026 110.964Z" fill="#18216D"/>
<path d="M67.2872 77.9931C68.077 74.8974 68.7956 71.5094 68.077 68.698C67.3425 65.7049 64.9181 63.0988 63.6229 60.3032C62.4778 57.7682 61.8776 54.7751 62.8806 52.2164C62.9362 52.0472 63.0218 51.8893 63.1333 51.7504C63.2668 51.6421 63.4214 51.5627 63.5872 51.5173C63.7531 51.472 63.9265 51.4616 64.0966 51.4868C64.2667 51.5121 64.4296 51.5724 64.5751 51.664C64.7206 51.7556 64.8455 51.8765 64.9417 52.019C65.3025 52.6121 65.5465 53.2689 65.6604 53.9538C66.1974 55.8491 67.4847 57.4207 68.7482 58.9291C71.6307 62.3881 75.3109 64.6625 76.0295 69.4167C76.4955 72.4887 76.2112 75.6713 76.5113 78.7749C76.8666 82.3998 77.451 85.9931 77.7906 89.6179C78.1381 93.4007 79.2437 104.836 74.8054 106.692C72.0177 107.861 65.1708 106.921 63.0069 104.686C62.3908 103.981 61.9202 103.161 61.622 102.273C61.3239 101.385 61.2041 100.447 61.2695 99.5132C61.4122 97.6488 61.819 95.8141 62.4778 94.0641C63.844 89.8627 65.3445 85.6851 66.4264 81.3889C66.6634 80.3307 66.9792 79.1856 67.2872 77.9931Z" fill="white" stroke="#18216D" stroke-miterlimit="10"/>
<path d="M116.906 94.1588C116.898 94.0929 116.876 94.0294 116.841 93.9723C116.807 93.9153 116.762 93.8659 116.708 93.8273C116.653 93.7888 116.592 93.7618 116.527 93.7482C116.462 93.7346 116.395 93.7345 116.329 93.7482C114.497 91.8607 112.555 89.7442 110.328 88.4017C110.138 88.2832 109.838 88.536 109.996 88.7334C110.893 89.7909 111.861 90.7857 112.894 91.7107C113.968 92.7847 115.042 93.8666 116.1 94.9643C116.377 95.2565 117.024 95.0591 116.969 94.609C116.945 94.4589 116.93 94.3089 116.906 94.1588Z" fill="white"/>
<path d="M123.492 92.6031C116.788 93.7718 109.972 96.1805 103.994 98.3839C102.49 99.0089 100.926 99.4774 99.3267 99.7817C97.599 99.9423 95.861 99.9608 94.1303 99.837C89.5183 99.7659 84.6062 100.871 81.3762 104.173C80.239 105.341 79.9231 108.255 81.7868 109.006C83.6506 109.756 86.6042 108.429 88.7285 108.682C90.8743 108.96 93.0456 108.981 95.1964 108.745C101.809 108.04 108.44 107.671 115.09 107.639C122.829 107.592 130.616 107.995 138.26 106.794C139.718 106.642 141.13 106.199 142.414 105.491C145.573 103.533 146.363 98.6682 143.899 96.0147C141.127 93.0295 135.867 92.0029 131.998 91.9081C129.147 91.8619 126.298 92.0946 123.492 92.6031Z" fill="white" stroke="#18216D" stroke-miterlimit="10"/>
<path d="M149.553 15.7231H42.9399V103.383H149.553V15.7231Z" stroke="#18216D" stroke-miterlimit="10"/>
<path d="M47.323 10.803H145.186C146.443 10.803 147.648 11.3023 148.537 12.1909C149.425 13.0795 149.924 14.2847 149.924 15.5414V21.4802H42.5609V15.5651C42.5578 14.9389 42.6788 14.3182 42.917 13.739C43.1552 13.1599 43.5059 12.6336 43.9487 12.1908C44.3915 11.748 44.9177 11.3973 45.4969 11.1591C46.0761 10.9209 46.6967 10.7999 47.323 10.803Z" fill="#18216D"/>
<path d="M49.2579 19.6164C50.8717 19.6164 52.1799 18.3082 52.1799 16.6944C52.1799 15.0806 50.8717 13.7724 49.2579 13.7724C47.6442 13.7724 46.3359 15.0806 46.3359 16.6944C46.3359 18.3082 47.6442 19.6164 49.2579 19.6164Z" fill="white"/>
<path d="M62.9439 16.5602C62.9683 17.1358 62.8216 17.7057 62.5222 18.1979C62.2228 18.6902 61.7843 19.0826 61.262 19.3257C60.7396 19.5688 60.157 19.6516 59.5876 19.5636C59.0182 19.4757 58.4877 19.2209 58.0631 18.8316C57.6384 18.4422 57.3387 17.9357 57.2018 17.3761C57.0649 16.8165 57.097 16.2289 57.2939 15.6875C57.4909 15.146 57.8439 14.6752 58.3084 14.3343C58.7728 13.9935 59.3279 13.7979 59.9035 13.7724C60.676 13.7403 61.4297 14.0156 61.9996 14.5382C62.5695 15.0607 62.9091 15.7878 62.9439 16.5602Z" fill="white"/>
<path d="M62.9438 16.5602C62.9682 17.1358 62.8215 17.7057 62.5221 18.1979C62.2227 18.6902 61.7842 19.0826 61.2618 19.3257C60.7395 19.5688 60.1568 19.6516 59.5875 19.5636C59.0181 19.4757 58.4876 19.2209 58.0629 18.8316C57.6383 18.4422 57.3386 17.9357 57.2017 17.3761C57.0648 16.8165 57.0968 16.2289 57.2938 15.6875C57.4908 15.146 57.8438 14.6752 58.3082 14.3343C58.7727 13.9935 59.3278 13.7979 59.9033 13.7724C60.6759 13.7403 61.4296 14.0156 61.9995 14.5382C62.5694 15.0607 62.9089 15.7878 62.9438 16.5602Z" fill="white"/>
<path d="M56.6339 13.1406L63.4256 20.2482" stroke="#18216D" stroke-miterlimit="10"/>
<path d="M56.476 20.0903L63.5836 13.2907" stroke="#18216D" stroke-miterlimit="10"/>
<path d="M145.605 141.685H22.407V229.344H145.605V141.685Z" fill="white" stroke="#18216D" stroke-miterlimit="10"/>
<path d="M104.997 187.22C109.948 189.432 115.998 189.361 122.3 185.372C136.823 176.18 132.637 145.096 108.527 151.193C85.9643 156.926 91.1212 181.029 104.997 187.22Z" fill="#005FEC"/>
<path d="M126.643 168.133C124.124 168.978 121.731 170.131 119.18 170.912C116.848 171.617 114.474 172.176 112.073 172.587C112.183 169.428 112.325 166.245 112.499 163.039C112.681 159.73 113.289 156.208 112.981 152.907C112.981 152.693 112.641 152.622 112.586 152.851C111.796 155.963 111.844 159.454 111.63 162.644C111.399 166.161 111.209 169.673 111.062 173.179C111.062 173.255 111.079 173.33 111.113 173.399C111.146 173.467 111.195 173.527 111.255 173.573C111.316 173.62 111.386 173.652 111.46 173.667C111.535 173.682 111.612 173.68 111.686 173.661C116.787 172.871 122.521 171.647 126.999 168.978C127.433 168.717 127.156 167.959 126.643 168.133Z" fill="#18216D"/>
<path d="M113.17 187.126C113.111 186.858 113.147 186.579 113.273 186.336C113.392 186.115 113.147 185.815 112.918 185.973C112.736 186.09 112.586 186.252 112.483 186.442C112.379 186.632 112.325 186.846 112.325 187.062C112.325 187.441 112.531 188.057 113.013 188.01C113.074 188.007 113.133 187.985 113.181 187.947C113.23 187.909 113.264 187.856 113.281 187.797C113.399 187.576 113.218 187.37 113.17 187.126Z" fill="#18216D"/>
<path d="M97.06 169.317C96.8152 168.836 96.5151 169.175 96.1992 169.317C95.8086 169.409 95.4077 169.448 95.0067 169.436C94.5644 169.475 94.1222 169.53 93.6799 169.609C93.4035 169.665 93.3877 170.146 93.6799 170.186C94.5054 170.336 95.3462 170.384 96.1834 170.328C96.6256 170.257 97.3443 169.87 97.06 169.317Z" fill="#18216D"/>
<path d="M113.399 150.759C113.354 150.715 113.296 150.687 113.233 150.679C113.171 150.67 113.108 150.682 113.052 150.711C112.843 150.845 112.687 151.048 112.613 151.285C112.54 151.522 112.552 151.778 112.649 152.006C112.67 152.086 112.712 152.159 112.77 152.217C112.829 152.275 112.901 152.317 112.981 152.338C113.051 152.353 113.124 152.352 113.195 152.337C113.265 152.321 113.331 152.291 113.389 152.247C113.447 152.204 113.494 152.149 113.529 152.085C113.563 152.022 113.584 151.952 113.589 151.88C113.647 151.691 113.659 151.492 113.627 151.297C113.594 151.102 113.516 150.918 113.399 150.759Z" fill="#18216D"/>
<path d="M97.9049 158.877C97.5276 158.758 97.1423 158.666 96.7519 158.601C96.4676 158.545 96.2465 158.94 96.5387 159.098C96.8719 159.273 97.2146 159.428 97.5654 159.564C97.8497 159.667 98.205 159.848 98.4814 159.635C98.5217 159.608 98.5529 159.569 98.5712 159.524C98.5895 159.479 98.594 159.43 98.5841 159.382C98.5051 159.059 98.1892 158.98 97.9049 158.877Z" fill="#18216D"/>
<path d="M102.509 155.789C102.264 155.568 102.012 155.379 101.719 155.165C101.427 154.952 101.293 154.723 101.048 154.549C101.002 154.523 100.949 154.51 100.896 154.513C100.844 154.517 100.793 154.535 100.75 154.568C100.708 154.6 100.676 154.644 100.659 154.694C100.642 154.744 100.64 154.798 100.653 154.849C100.804 155.178 101.023 155.471 101.295 155.709C101.567 155.947 101.887 156.125 102.233 156.231C102.29 156.25 102.351 156.249 102.408 156.229C102.464 156.208 102.512 156.17 102.544 156.119C102.576 156.068 102.59 156.008 102.584 155.948C102.577 155.888 102.551 155.832 102.509 155.789Z" fill="#18216D"/>
<path d="M99.9266 180.531C99.4085 180.897 98.9411 181.33 98.5367 181.819C98.3472 182.063 98.592 182.498 98.9 182.292C99.4184 181.924 99.8858 181.489 100.29 180.997C100.487 180.768 100.219 180.318 99.9266 180.531Z" fill="#18216D"/>
<path d="M104.712 184.204C104.547 184.488 104.373 184.772 104.199 185.056C104.025 185.341 103.891 185.507 103.994 185.846C104.019 185.928 104.075 185.998 104.15 186.04C104.225 186.083 104.313 186.095 104.397 186.075C104.72 185.988 104.799 185.791 104.942 185.499L105.384 184.606C105.41 184.562 105.428 184.513 105.435 184.463C105.443 184.412 105.44 184.36 105.428 184.31C105.415 184.26 105.393 184.213 105.363 184.172C105.332 184.131 105.294 184.096 105.25 184.069C105.205 184.043 105.157 184.025 105.106 184.018C105.055 184.01 105.003 184.013 104.953 184.025C104.903 184.038 104.856 184.06 104.815 184.09C104.774 184.121 104.739 184.16 104.712 184.204Z" fill="#18216D"/>
<path d="M121.368 184.93C121.21 184.875 120.949 184.812 120.925 184.598C120.921 184.523 120.89 184.451 120.839 184.396C120.787 184.341 120.717 184.306 120.642 184.296C120.567 184.287 120.491 184.304 120.428 184.345C120.364 184.386 120.317 184.447 120.294 184.519C120.236 184.679 120.22 184.85 120.25 185.017C120.279 185.184 120.352 185.34 120.461 185.47C120.57 185.6 120.711 185.698 120.87 185.756C121.029 185.814 121.201 185.829 121.368 185.799C121.849 185.712 121.739 185.072 121.368 184.93Z" fill="#18216D"/>
<path d="M102.391 237.218C103.867 239.058 106.703 238.75 108.985 238.182C111.267 237.613 113.976 237.036 115.729 238.608C116.473 230.688 114.462 222.754 110.037 216.144C105.612 209.533 99.0428 204.651 91.4372 202.32C85.1194 200.377 79.2675 201.127 72.8233 201.53C65.3209 202.012 58.0475 204.65 51.5796 208.409C41.8344 214.079 29.2066 223.106 25.8345 234.28" fill="#18216D"/>
<path d="M64.8865 219.149C64.1315 218.631 63.4512 218.012 62.8648 217.309C62.3474 216.547 61.9908 215.688 61.817 214.783C61.6432 213.879 61.6558 212.949 61.854 212.049C62.2584 210.257 62.8377 208.509 63.5835 206.829C67.2715 197.171 66.5687 186.573 70.1698 176.82C70.8095 175.098 71.5124 172.871 72.6812 171.442C73.9249 170.152 75.3352 169.034 76.8746 168.117C82.4738 164.326 90.3869 161.657 95.986 166.924C99.0028 169.767 99.6425 174.308 99.5398 178.454C99.4117 184.227 98.2204 189.927 96.0255 195.268C95.5096 196.504 94.7406 197.618 93.7681 198.539C92.7956 199.459 91.6412 200.166 90.379 200.614C88.1519 201.404 87.1648 201.167 86.1381 203.323C84.9829 206.091 84.5692 209.112 84.9377 212.089C85.2258 213.386 85.3766 214.709 85.3879 216.038C84.7561 223.279 76.3297 223.453 70.9832 222.166C68.7929 221.518 66.7306 220.497 64.8865 219.149Z" fill="white" stroke="#18216D" stroke-miterlimit="10"/>
<path d="M119.014 193.404C119.501 192.301 120.205 191.307 121.084 190.482C122.886 188.951 124.867 187.644 126.983 186.589C127.088 186.514 127.208 186.462 127.334 186.434C127.46 186.407 127.591 186.406 127.717 186.431C127.849 186.495 127.954 186.605 128.013 186.739C128.072 186.873 128.082 187.024 128.041 187.165C127.956 187.445 127.805 187.7 127.599 187.907L126.154 189.629C124.432 191.682 128.436 190.419 129.076 190.174C130.879 189.521 132.545 188.538 133.988 187.276C134.483 186.816 135.01 186.394 135.567 186.012C136.291 185.525 137.166 185.318 138.031 185.428C138.629 185.578 139.163 185.917 139.555 186.393C139.948 186.869 140.177 187.457 140.211 188.073C140.345 190.806 137.936 193.823 135.978 195.181C133.795 196.704 131.339 197.792 128.744 198.387C128.514 198.435 128.302 198.545 128.131 198.705C127.96 198.865 127.836 199.069 127.773 199.295L120.847 224.361C120.139 227.003 119.282 229.603 118.28 232.148C117.151 234.991 115.548 237.795 112.428 238.719C111.33 239.03 110.171 239.059 109.059 238.8C107.947 238.542 106.919 238.006 106.071 237.242C100.622 232.322 106.442 222.371 108.479 217.175C110.401 212.31 112.452 207.501 114.631 202.746C115.721 200.372 116.848 198.003 118.011 195.639C118.375 194.841 118.675 194.091 119.014 193.404Z" fill="white" stroke="#18216D" stroke-miterlimit="10"/>
<path d="M67.2871 168.575C68.1091 167.678 68.9818 166.829 69.9011 166.032C68.3927 164.997 66.9791 163.252 67.5319 161.507C67.8623 160.658 68.4761 159.949 69.2693 159.501C70.2759 158.852 71.4059 158.418 72.5882 158.226C73.7706 158.034 74.9798 158.089 76.14 158.387C78.2053 159.021 80.0806 160.158 81.597 161.696C81.8142 161.935 82.0848 162.119 82.3867 162.233C82.6243 162.277 82.8678 162.277 83.1054 162.233L90.5446 161.515C92.4769 161.261 94.4309 161.216 96.3728 161.38C99.3895 161.744 102.651 163.276 102.928 166.616C103.204 169.957 100.764 172.934 97.8733 174.364C94.7854 175.848 91.2396 175.943 87.82 175.983C84.4005 176.022 80.8625 176.062 77.7352 177.459C76.3321 177.986 75.1827 179.029 74.521 180.373C74.1972 181.163 74.0709 182.237 73.2811 182.632C72.0729 183.248 71.9307 183.335 71.4648 184.654C70.9278 186.186 70.3118 187.702 69.6563 189.195C69.0008 190.687 67.0107 193.933 64.9969 192.29C63.4964 191.074 63.6544 185.973 63.5675 184.148C63.3464 179.931 63.4806 174.269 65.7787 170.565C66.2231 169.859 66.7278 169.193 67.2871 168.575Z" fill="#18216D"/>
<path d="M91.5161 192.567C91.281 192.662 91.0282 192.706 90.7747 192.695C90.5213 192.684 90.2732 192.619 90.0472 192.504C89.7234 192.361 89.2574 192.677 89.5181 193.041C89.801 193.442 90.2255 193.721 90.706 193.823C91.1866 193.924 91.6877 193.839 92.1084 193.586C92.7796 193.199 92.1952 192.259 91.5161 192.567Z" fill="#18216D"/>
<path d="M86.446 183.185C85.7826 182.766 84.3137 183.848 85.593 184.417C86.1143 184.646 86.8882 184.117 86.6987 183.524C86.6605 183.383 86.5702 183.262 86.446 183.185Z" fill="#18216D"/>
<path d="M97.4547 182.893C97.306 182.776 97.1224 182.713 96.9335 182.713C96.7445 182.713 96.561 182.776 96.4123 182.893C96.3119 182.997 96.2508 183.132 96.2392 183.276C96.2277 183.42 96.2665 183.564 96.3491 183.682C96.3728 183.777 96.4101 183.867 96.4596 183.951C96.5234 184.052 96.6232 184.126 96.739 184.157C96.8547 184.187 96.9778 184.173 97.0835 184.117C97.2254 184.048 97.351 183.95 97.4518 183.829C97.5525 183.707 97.6263 183.566 97.6679 183.414C97.6916 183.316 97.6837 183.212 97.6454 183.119C97.6071 183.025 97.5404 182.946 97.4547 182.893Z" fill="#18216D"/>
<path d="M92.8665 184.022C92.7718 183.738 92.2664 183.659 92.2111 184.022C92.078 185.029 91.8775 186.027 91.6109 187.007C91.4292 187.663 91.0502 188.531 91.4608 189.163C91.7925 189.669 92.7402 189.353 92.4954 188.729C92.2506 188.105 92.8192 186.794 92.9376 186.115C93.0882 185.422 93.0638 184.703 92.8665 184.022Z" fill="#18216D"/>
<path d="M70.4067 183.058C69.8206 183.121 69.2603 183.333 68.7799 183.674C68.1964 183.992 67.7043 184.455 67.3505 185.017C66.883 185.763 66.647 186.631 66.6723 187.51C66.6976 188.39 66.9831 189.243 67.4926 189.961C67.9968 190.603 68.7297 191.024 69.538 191.138C70.3462 191.251 71.1669 191.047 71.8282 190.569C74.5054 188.666 74.8292 182.616 70.4067 183.058Z" fill="white"/>
<path d="M71.0542 185.68C70.7908 185.703 70.5362 185.785 70.3101 185.922C70.0841 186.059 69.8928 186.247 69.7512 186.47C69.5785 186.692 69.4715 186.957 69.4422 187.236C69.4128 187.515 69.4624 187.797 69.5853 188.05C69.6259 188.128 69.6957 188.188 69.7799 188.216C69.864 188.244 69.9557 188.238 70.0355 188.2C70.2487 188.089 70.2013 187.789 70.2171 187.584C70.2204 187.302 70.3101 187.029 70.4739 186.8C70.6377 186.571 70.8679 186.398 71.1332 186.304C71.4491 186.178 71.4017 185.641 71.0542 185.68Z" fill="#18216D"/>
<path d="M74.7028 197.637C73.0522 196.492 70.9595 193.996 71.1332 191.698L70.9121 191.635C70.1957 191.468 69.4994 191.224 68.8351 190.908C68.9299 190.956 68.8351 194.399 68.9062 194.778C69.0583 196.148 69.3467 197.5 69.767 198.814C70.2724 200.393 71.536 204.997 74.0157 203.552C75.2161 202.857 76.3849 202.13 77.5616 201.388C78.1855 200.993 78.7936 200.598 79.4174 200.196L79.6228 200.077C77.8908 199.464 76.2389 198.645 74.7028 197.637Z" fill="#18216D"/>
<path d="M125.759 190.387C125.735 190.336 125.694 190.295 125.643 190.272C125.592 190.249 125.534 190.244 125.48 190.259C125.426 190.274 125.379 190.308 125.348 190.355C125.316 190.402 125.302 190.458 125.308 190.514C125.392 191.066 125.365 191.63 125.229 192.172C125.094 192.714 124.852 193.224 124.519 193.672C124.329 193.949 124.732 194.217 124.961 194.012C125.442 193.557 125.775 192.969 125.917 192.322C126.06 191.676 126.004 191.002 125.759 190.387Z" fill="#18216D"/>
<path d="M127.844 195.323C126.816 195.082 125.738 195.19 124.779 195.631C123.969 195.933 123.295 196.52 122.884 197.282C122.866 197.329 122.864 197.381 122.881 197.429C122.898 197.477 122.931 197.518 122.975 197.543C123.018 197.569 123.07 197.578 123.12 197.569C123.17 197.56 123.215 197.534 123.247 197.495C123.814 196.747 124.644 196.245 125.569 196.089C126.356 196.048 127.135 195.915 127.891 195.694C128.065 195.607 127.994 195.386 127.844 195.323Z" fill="#18216D"/>
<path d="M145.605 141.685H22.407V229.344H145.605V141.685Z" stroke="#18216D" stroke-miterlimit="10"/>
<path d="M26.79 134.001H141.237C142.494 134.001 143.699 134.5 144.588 135.388C145.477 136.277 145.976 137.482 145.976 138.739V144.678H22.028V138.739C22.0279 138.115 22.1513 137.497 22.3909 136.92C22.6305 136.344 22.9816 135.82 23.4242 135.38C23.8667 134.94 24.3918 134.591 24.9694 134.354C25.5471 134.118 26.1658 133.997 26.79 134.001Z" fill="#18216D"/>
<path d="M28.725 142.814C30.3388 142.814 31.647 141.506 31.647 139.892C31.647 138.278 30.3388 136.97 28.725 136.97C27.1113 136.97 25.803 138.278 25.803 139.892C25.803 141.506 27.1113 142.814 28.725 142.814Z" fill="white"/>
<path d="M42.411 139.758C42.4354 140.333 42.2887 140.903 41.9893 141.395C41.6899 141.888 41.2514 142.28 40.7291 142.523C40.2067 142.766 39.6241 142.849 39.0547 142.761C38.4853 142.673 37.9548 142.418 37.5302 142.029C37.1055 141.64 36.8058 141.133 36.6689 140.574C36.532 140.014 36.5641 139.426 36.761 138.885C36.958 138.344 37.311 137.873 37.7755 137.532C38.2399 137.191 38.795 136.995 39.3706 136.97C40.1431 136.938 40.8968 137.213 41.4667 137.736C42.0366 138.258 42.3762 138.985 42.411 139.758Z" fill="white"/>
<path d="M42.4108 139.758C42.4352 140.333 42.2884 140.903 41.9891 141.395C41.6897 141.888 41.2511 142.28 40.7288 142.523C40.2065 142.766 39.6238 142.849 39.0545 142.761C38.4851 142.673 37.9546 142.418 37.5299 142.029C37.1053 141.64 36.8056 141.133 36.6687 140.574C36.5318 140.014 36.5638 139.426 36.7608 138.885C36.9577 138.344 37.3107 137.873 37.7752 137.532C38.2397 137.191 38.7948 136.995 39.3703 136.97C40.1428 136.938 40.8966 137.213 41.4665 137.736C42.0364 138.258 42.3759 138.985 42.4108 139.758Z" fill="white"/>
<path d="M36.1009 136.338L42.8926 143.446" stroke="#18216D" stroke-miterlimit="10"/>
<path d="M35.943 143.288L43.0505 136.488" stroke="#18216D" stroke-miterlimit="10"/>
<path d="M133.451 129.807L143.086 117.93L146.876 129.807L155.208 117.535L159.117 129.807L167.307 117.732L171.16 129.807L179.018 118.23" stroke="#18216D" stroke-miterlimit="10"/>
<path d="M0.776611 222.205L10.4113 210.328L14.202 222.205L22.5336 209.933L26.4428 222.205L34.6401 210.13L38.4861 222.205" stroke="#00ECD0" stroke-width="2" stroke-miterlimit="10"/>
<path d="M59.1375 276.768C59.3515 276.16 59.711 275.613 60.1847 275.177C60.6584 274.74 61.2318 274.425 61.855 274.261C62.4781 274.096 63.132 274.087 63.7596 274.234C64.3871 274.38 64.9693 274.678 65.4553 275.101L65.7001 275.307C66.2062 275.74 66.8139 276.039 67.4665 276.174C68.1192 276.31 68.7955 276.278 69.4325 276.082C70.0695 275.886 70.6465 275.531 71.1096 275.052C71.5727 274.572 71.9069 273.984 72.0811 273.34L73.3368 268.539C73.5099 267.895 73.8434 267.305 74.3061 266.825C74.7688 266.344 75.3457 265.989 75.9828 265.792C76.6199 265.595 77.2966 265.562 77.9497 265.697C78.6029 265.832 79.2111 266.131 79.7178 266.564L79.8678 266.699C80.3739 267.132 80.9816 267.431 81.6343 267.566C82.2869 267.702 82.9632 267.67 83.6002 267.474C84.2372 267.278 84.8142 266.923 85.2773 266.444C85.7404 265.964 86.0746 265.376 86.2488 264.732L87.4334 260.207C87.6066 259.563 87.9401 258.973 88.4028 258.493C88.8655 258.013 89.4423 257.657 90.0794 257.46C90.7166 257.263 91.3933 257.23 92.0464 257.366C92.6995 257.501 93.3077 257.799 93.8144 258.233C94.3205 258.666 94.9282 258.965 95.5809 259.101C96.2335 259.236 96.9098 259.204 97.5468 259.008C98.1838 258.812 98.7608 258.457 99.2239 257.978C99.687 257.498 100.021 256.91 100.195 256.266" stroke="#18216D" stroke-miterlimit="10"/>
<path d="M126.564 0.749817C127.165 0.525532 127.81 0.450674 128.446 0.531703C129.081 0.612733 129.688 0.847217 130.213 1.21492C130.737 1.58261 131.165 2.07248 131.458 2.64224C131.751 3.21199 131.901 3.84452 131.895 4.48523V4.80902C131.89 5.4752 132.054 6.1318 132.371 6.7177C132.688 7.3036 133.148 7.79975 133.709 8.15997C134.269 8.52018 134.911 8.73275 135.576 8.77787C136.241 8.823 136.906 8.69923 137.51 8.41808L141.996 6.27791C142.6 5.99676 143.265 5.87299 143.93 5.91811C144.594 5.96324 145.237 6.17581 145.797 6.53602C146.357 6.89623 146.818 7.39238 147.135 7.97828C147.452 8.56418 147.616 9.22079 147.611 9.88697V10.1002C147.606 10.7664 147.769 11.423 148.086 12.0089C148.404 12.5948 148.864 13.0909 149.424 13.4511C149.985 13.8114 150.627 14.0239 151.292 14.069C151.956 14.1142 152.622 13.9904 153.226 13.7093L157.451 11.6954C158.055 11.4125 158.721 11.2873 159.387 11.3316C160.053 11.3758 160.696 11.5881 161.258 11.9485C161.819 12.3089 162.28 12.8058 162.598 13.3926C162.915 13.9795 163.079 14.6373 163.073 15.3045V15.3045C163.069 15.9696 163.233 16.6251 163.55 17.21C163.866 17.7949 164.326 18.2904 164.885 18.6504C165.444 19.0104 166.085 19.2233 166.749 19.2693C167.412 19.3153 168.077 19.1929 168.681 18.9136" stroke="#18216D" stroke-miterlimit="10"/>
<path d="M169.47 189.511C168.254 188.094 167.329 186.452 166.748 184.677C166.167 182.903 165.941 181.032 166.083 179.17C166.224 177.309 166.732 175.494 167.575 173.828C168.419 172.162 169.582 170.679 170.998 169.463C173.86 167.008 177.579 165.789 181.339 166.075C185.098 166.362 188.59 168.13 191.046 170.991" stroke="#00ECD0" stroke-width="2" stroke-miterlimit="10"/>
<path d="M286.966 22.8306C291.11 22.8306 294.469 19.4717 294.469 15.3282C294.469 11.1847 291.11 7.82578 286.966 7.82578C282.823 7.82578 279.464 11.1847 279.464 15.3282C279.464 19.4717 282.823 22.8306 286.966 22.8306Z" fill="#005FEC"/>
<path d="M307.949 218.344C310.17 218.344 312.37 218.781 314.421 219.631C316.473 220.482 318.338 221.728 319.908 223.299C321.478 224.869 322.723 226.734 323.572 228.787C324.422 230.839 324.858 233.038 324.857 235.259" fill="white"/>
<path d="M307.949 218.344C310.17 218.344 312.37 218.781 314.421 219.631C316.473 220.482 318.338 221.728 319.908 223.299C321.478 224.869 322.723 226.734 323.572 228.787C324.422 230.839 324.858 233.038 324.857 235.259" stroke="#18216D" stroke-miterlimit="10"/>
<path d="M318.16 2.29768L294.469 25.9895" stroke="#18216D" stroke-miterlimit="10"/>
<rect x="43.1138" y="103.77" width="102.665" height="13.4254" fill="white"/>
<rect x="24.1603" y="229.731" width="97.9263" height="16.5843" fill="white"/>
<rect x="178.947" y="134.174" width="128.726" height="24.4816" fill="white"/>
<path d="M287.764 151.161L302.16 139.292L305.943 151.161L318.618 138.897L322.527 151.161L334.997 139.094L338.843 151.161L350.8 139.584" stroke="#00ECD0" stroke-width="2" stroke-miterlimit="10"/>
<path d="M222.208 147.213L198.516 170.905" stroke="#18216D" stroke-miterlimit="10"/>
<path d="M215.89 158.269L192.198 181.961" stroke="#18216D" stroke-miterlimit="10"/>
</svg>
